<svg width="32" height="32" viewBox="0 0 32 32" fill="none" xmlns="http://www.w3.org/2000/svg">
<path d="M16.0003 2.66699C8.64033 2.66699 2.66699 8.64033 2.66699 16.0003C2.66699 23.3603 8.64033 29.3337 16.0003 29.3337C23.3603 29.3337 29.3337 23.3603 29.3337 16.0003C29.3337 8.64033 23.3603 2.66699 16.0003 2.66699ZM16.0003 11.667C15.4537 11.667 15.0003 11.2137 15.0003 10.667C15.0003 10.1203 15.4537 9.66699 16.0003 9.66699C19.4937 9.66699 22.3337 12.507 22.3337 16.0003C22.3337 19.4937 19.4937 22.3337 16.0003 22.3337C15.4537 22.3337 15.0003 21.8803 15.0003 21.3337C15.0003 20.787 15.4537 20.3337 16.0003 20.3337C18.387 20.3337 20.3337 18.387 20.3337 16.0003C20.3337 13.6137 18.387 11.667 16.0003 11.667ZM16.0003 26.3337C10.307 26.3337 5.66699 21.6937 5.66699 16.0003C5.66699 15.4537 6.12033 15.0003 6.66699 15.0003C7.21366 15.0003 7.66699 15.4537 7.66699 16.0003C7.66699 20.6003 11.4003 24.3337 16.0003 24.3337C20.6003 24.3337 24.3337 20.6003 24.3337 16.0003C24.3337 11.4003 20.6003 7.66699 16.0003 7.66699C15.4537 7.66699 15.0003 7.21366 15.0003 6.66699C15.0003 6.12033 15.4537 5.66699 16.0003 5.66699C21.6937 5.66699 26.3337 10.307 26.3337 16.0003C26.3337 21.6937 21.6937 26.3337 16.0003 26.3337Z" fill="white"/>
</svg>
