<svg width="32" height="32" viewBox="0 0 32 32" fill="none" xmlns="http://www.w3.org/2000/svg">
<path d="M21.587 2.66699H10.4137C5.56033 2.66699 2.66699 5.56033 2.66699 10.4137V21.5737C2.66699 26.4403 5.56033 29.3337 10.4137 29.3337H21.5737C26.427 29.3337 29.3203 26.4403 29.3203 21.587V10.4137C29.3337 5.56033 26.4403 2.66699 21.587 2.66699ZM12.147 22.5337C12.147 22.907 11.8537 23.2003 11.4803 23.2003H7.76033C7.38699 23.2003 7.09366 22.907 7.09366 22.5337V16.3737C7.09366 15.5337 7.77366 14.8537 8.61366 14.8537H11.4803C11.8537 14.8537 12.147 15.147 12.147 15.5203V22.5337ZM18.5203 22.5337C18.5203 22.907 18.227 23.2003 17.8537 23.2003H14.1337C13.7603 23.2003 13.467 22.907 13.467 22.5337V10.3203C13.467 9.48032 14.147 8.80032 14.987 8.80032H17.0137C17.8537 8.80032 18.5337 9.48032 18.5337 10.3203V22.5337H18.5203ZM24.907 22.5337C24.907 22.907 24.6137 23.2003 24.2403 23.2003H20.5203C20.147 23.2003 19.8537 22.907 19.8537 22.5337V17.8003C19.8537 17.427 20.147 17.1337 20.5203 17.1337H23.387C24.227 17.1337 24.907 17.8137 24.907 18.6537V22.5337Z" fill="#FFD86F"/>
</svg>
