<svg width="16" height="16" viewBox="0 0 16 16" fill="none" xmlns="http://www.w3.org/2000/svg">
<path d="M12.0136 8.21967L11.2003 7.40634C11.0069 7.23967 10.8936 6.99301 10.8869 6.71967C10.8736 6.41967 10.9936 6.11967 11.2136 5.89967L12.0136 5.09967C12.7069 4.40634 12.9669 3.73967 12.7469 3.21301C12.5336 2.69301 11.8736 2.40634 10.9003 2.40634H3.93359V1.83301C3.93359 1.55967 3.70693 1.33301 3.43359 1.33301C3.16026 1.33301 2.93359 1.55967 2.93359 1.83301V14.1663C2.93359 14.4397 3.16026 14.6663 3.43359 14.6663C3.70693 14.6663 3.93359 14.4397 3.93359 14.1663V10.913H10.9003C11.8603 10.913 12.5069 10.6197 12.7269 10.093C12.9469 9.56634 12.6936 8.90634 12.0136 8.21967Z" fill="#C9FF85"/>
</svg>
