<svg width="24" height="25" viewBox="0 0 24 25" fill="none" xmlns="http://www.w3.org/2000/svg">
<path d="M11.9697 2.5C6.44973 2.5 1.96973 6.98 1.96973 12.5C1.96973 18.02 6.44973 22.5 11.9697 22.5C17.4897 22.5 21.9697 18.02 21.9697 12.5C21.9697 6.98 17.4997 2.5 11.9697 2.5ZM15.7197 12.85L11.9997 17.08L11.5597 17.58C10.9497 18.27 10.4497 18.09 10.4497 17.16V13.2H8.74973C7.97973 13.2 7.76973 12.73 8.27973 12.15L11.9997 7.92L12.4397 7.42C13.0497 6.73 13.5497 6.91 13.5497 7.84V11.8H15.2497C16.0197 11.8 16.2297 12.27 15.7197 12.85Z" fill="#160C0D"/>
</svg>
