<svg width="32" height="32" viewBox="0 0 32 32" fill="none" xmlns="http://www.w3.org/2000/svg">
<path d="M15.9603 2.66699C8.60029 2.66699 2.62695 8.64033 2.62695 16.0003C2.62695 23.3603 8.60029 29.3337 15.9603 29.3337C23.3203 29.3337 29.2936 23.3603 29.2936 16.0003C29.2936 8.64033 23.3336 2.66699 15.9603 2.66699ZM20.9603 16.467L16.0003 22.107L15.4136 22.7737C14.6003 23.6937 13.9336 23.4537 13.9336 22.2137V16.9337H11.667C10.6403 16.9337 10.3603 16.307 11.0403 15.5337L16.0003 9.89366L16.587 9.22699C17.4003 8.30699 18.067 8.54699 18.067 9.78699V15.067H20.3336C21.3603 15.067 21.6403 15.6937 20.9603 16.467Z" fill="#7CE1FF"/>
</svg>
