<svg width="32" height="32" viewBox="0 0 32 32" fill="none" xmlns="http://www.w3.org/2000/svg">
<path d="M24.6265 22.4403L25.1465 26.6537C25.2799 27.7603 24.0932 28.5337 23.1465 27.9603L18.5332 25.2137C18.2132 25.027 18.1332 24.627 18.3065 24.307C18.9732 23.0803 19.3332 21.6937 19.3332 20.307C19.3332 15.427 15.1465 11.4537 9.99986 11.4537C8.94653 11.4537 7.91986 11.6137 6.95986 11.9337C6.46652 12.0937 5.98653 11.6403 6.10653 11.1337C7.31986 6.28033 11.9865 2.66699 17.5599 2.66699C24.0665 2.66699 29.3332 7.58699 29.3332 13.6537C29.3332 17.2537 27.4799 20.4403 24.6265 22.4403Z" fill="white"/>
<path d="M17.3337 20.3065C17.3337 21.8931 16.747 23.3598 15.7603 24.5198C14.4403 26.1198 12.347 27.1465 10.0003 27.1465L6.52033 29.2131C5.93366 29.5731 5.18699 29.0798 5.26699 28.3998L5.60033 25.7731C3.81366 24.5331 2.66699 22.5465 2.66699 20.3065C2.66699 17.9598 3.92033 15.8931 5.84033 14.6665C7.02699 13.8931 8.45366 13.4531 10.0003 13.4531C14.0537 13.4531 17.3337 16.5198 17.3337 20.3065Z" fill="white"/>
</svg>
