<svg width="28" height="28" viewBox="0 0 28 28" fill="none" xmlns="http://www.w3.org/2000/svg">
<path d="M9.67188 7.33801C9.18187 7.33801 8.79688 6.94134 8.79688 6.46301V3.20801C8.79688 2.72967 9.18187 2.33301 9.67188 2.33301C10.1619 2.33301 10.5469 2.72967 10.5469 3.20801V6.45134C10.5469 6.94134 10.1619 7.33801 9.67188 7.33801Z" fill="#9886FE"/>
<path d="M18.3281 7.33801C17.8381 7.33801 17.4531 6.94134 17.4531 6.46301V3.20801C17.4531 2.71801 17.8498 2.33301 18.3281 2.33301C18.8181 2.33301 19.2031 2.72967 19.2031 3.20801V6.45134C19.2031 6.94134 18.8181 7.33801 18.3281 7.33801Z" fill="#9886FE"/>
<path d="M22.831 5.24967C22.061 4.67801 20.9527 5.22634 20.9527 6.19467V6.31134C20.9527 7.67634 19.9727 8.93634 18.6077 9.07634C17.0327 9.23968 15.7027 8.00301 15.7027 6.46301V5.24967C15.7027 4.60801 15.1777 4.08301 14.536 4.08301H13.4627C12.821 4.08301 12.296 4.60801 12.296 5.24967V6.46301C12.296 7.38467 11.8177 8.20134 11.0943 8.65634C10.9893 8.72634 10.8727 8.78467 10.756 8.84301C10.651 8.90134 10.5343 8.94801 10.406 8.98301C10.266 9.02967 10.1143 9.06467 9.95101 9.07634C9.76435 9.09968 9.57768 9.09968 9.39102 9.07634C9.22768 9.06467 9.07602 9.02967 8.93602 8.98301C8.81935 8.94801 8.70268 8.90134 8.58602 8.84301C8.46935 8.78467 8.35268 8.72634 8.24768 8.65634C7.51268 8.14301 7.04602 7.25634 7.04602 6.31134V6.19467C7.04602 5.29634 6.08935 4.75967 5.33102 5.14467C5.31935 5.15634 5.30768 5.15634 5.29602 5.16801C5.24935 5.19134 5.21435 5.21467 5.16768 5.24967C5.13268 5.28467 5.08602 5.30801 5.05102 5.34301C4.72435 5.59967 4.43268 5.89134 4.18768 6.20634C4.05935 6.34634 3.95435 6.49801 3.86102 6.64967C3.84935 6.66134 3.83768 6.67301 3.82602 6.69634C3.72102 6.84801 3.62768 7.02301 3.54602 7.18634C3.52268 7.20967 3.51102 7.22134 3.51102 7.24467C3.44102 7.38467 3.37102 7.52467 3.32435 7.67634C3.28935 7.73467 3.27768 7.78134 3.25435 7.83967C3.18435 8.01467 3.13768 8.18967 3.09102 8.36468C3.04435 8.52801 3.00935 8.70301 2.98602 8.87801C2.96268 9.00634 2.95102 9.13467 2.93935 9.27467C2.92768 9.43801 2.91602 9.60134 2.91602 9.76467V19.9847C2.91602 23.123 5.45935 25.6663 8.59768 25.6663H19.401C22.5393 25.6663 25.0827 23.123 25.0827 19.9847V9.76467C25.0827 7.90967 24.196 6.28801 22.831 5.24967ZM13.9993 20.323H8.58602C8.10768 20.323 7.71102 19.9263 7.71102 19.448C7.71102 18.958 8.10768 18.5613 8.58602 18.5613H13.9993C14.4893 18.5613 14.8743 18.958 14.8743 19.448C14.8743 19.9263 14.4893 20.323 13.9993 20.323ZM17.2427 15.9947H8.58602C8.10768 15.9947 7.71102 15.598 7.71102 15.1197C7.71102 14.6297 8.10768 14.233 8.58602 14.233H17.2427C17.7327 14.233 18.1293 14.6297 18.1293 15.1197C18.1293 15.598 17.7327 15.9947 17.2427 15.9947Z" fill="#9886FE"/>
</svg>
